<?xml version="1.0" standalone="no"?>
<!DOCTYPE svg PUBLIC "-//W3C//DTD SVG 20010904//EN"
 "http://www.w3.org/TR/2001/REC-SVG-20010904/DTD/svg10.dtd">
<svg version="1.0" xmlns="http://www.w3.org/2000/svg"
 width="775.000000pt" height="775.000000pt" viewBox="0 0 775.000000 775.000000"
 preserveAspectRatio="xMidYMid meet">
<metadata>
Created by potrace 1.11, written by Peter Selinger 2001-2013
</metadata>
<g transform="translate(0.000000,775.000000) scale(0.100000,-0.100000)"
fill="#000000" stroke="none">
<path d="M0 3875 l0 -3875 3875 0 3875 0 0 3875 0 3875 -3875 0 -3875 0 0
-3875z m1148 1538 c43 -47 24 -78 -70 -113 -66 -24 -124 -82 -133 -132 -3 -18
-4 -429 -2 -913 4 -938 5 -953 56 -1169 40 -168 113 -319 206 -424 93 -104
262 -202 432 -250 92 -25 110 -27 293 -27 161 1 215 5 310 24 418 82 668 348
709 751 14 131 14 1256 1 1487 -15 263 -49 424 -110 530 -40 70 -90 97 -203
113 -132 18 -180 68 -122 125 29 30 60 31 290 14 120 -9 179 -8 295 3 105 10
175 11 250 5 142 -12 317 -13 551 -3 193 9 196 9 217 -12 41 -41 20 -83 -48
-97 -52 -10 -77 -30 -90 -71 -23 -69 -7 -154 65 -349 36 -99 104 -283 150
-410 46 -126 105 -286 130 -355 26 -69 66 -179 90 -245 24 -66 65 -176 90
-245 26 -69 66 -179 90 -245 24 -66 64 -174 89 -240 26 -66 49 -127 52 -135 6
-16 3 -22 218 520 79 201 192 487 251 635 59 149 110 277 112 286 9 31 -241
611 -299 696 -46 67 -126 114 -236 138 -43 9 -69 47 -54 80 28 62 75 67 368
44 126 -10 191 -10 300 -1 77 7 190 12 252 12 99 0 114 -2 132 -20 39 -39 13
-84 -54 -94 -32 -5 -52 -15 -67 -34 -19 -24 -21 -36 -16 -122 4 -88 20 -145
205 -760 256 -850 408 -1330 440 -1386 9 -16 65 124 343 846 95 247 246 679
303 870 80 269 86 386 22 478 -25 36 -39 46 -139 90 -59 27 -77 60 -53 97 28
43 57 48 216 39 164 -10 363 -11 526 -4 100 4 114 3 133 -14 26 -23 27 -67 4
-88 -10 -9 -43 -19 -73 -23 -114 -15 -179 -67 -256 -206 -23 -41 -127 -306
-233 -589 -105 -283 -198 -531 -206 -550 -8 -19 -37 -96 -64 -170 -27 -74 -54
-146 -60 -160 -6 -14 -47 -124 -91 -245 -45 -121 -101 -272 -125 -335 -62
-161 -144 -387 -234 -649 -83 -241 -96 -262 -143 -240 -20 8 -29 27 -48 92
-50 177 -202 624 -398 1167 -209 581 -297 820 -303 820 -6 0 -122 -285 -267
-660 -107 -275 -164 -420 -222 -570 -75 -190 -176 -466 -240 -653 -31 -93 -65
-176 -73 -185 -26 -25 -68 -5 -84 38 -6 19 -51 148 -98 285 -180 522 -210 607
-307 860 -55 143 -110 287 -123 320 -13 33 -43 112 -68 175 -25 63 -88 223
-140 355 -369 931 -346 878 -403 957 -37 49 -118 108 -151 108 -11 0 -27 -8
-35 -17 -44 -51 -43 -18 -49 -1053 -6 -1086 -5 -1071 -70 -1270 -58 -175 -128
-291 -248 -410 -153 -152 -342 -245 -601 -299 -192 -40 -470 -53 -650 -30
-372 46 -756 247 -942 492 -109 145 -176 317 -198 507 -6 49 -10 449 -10 935
0 934 0 926 -61 1025 -36 59 -83 89 -186 119 -50 15 -78 30 -92 48 -27 33 -26
46 3 80 21 25 32 28 97 31 49 3 119 -4 204 -19 174 -31 350 -32 490 -1 167 36
226 35 263 -5z"/>
</g>
</svg>
