<svg xmlns="http://www.w3.org/2000/svg" viewBox="-700.016 -132 157.926 21"><path d="M-625.423-131.748v.344c-.715.114-1.631.343-1.631 1.656 0 .057 0 .658.087 1.517l1.344 13.454c.2 1.8.343 2.432 1.888 2.918v.344h-5.895v-.344c.857-.257 1.6-.6 1.6-1.859 0-.258 0-.258-.087-1.43l-1.283-13.623-7.18 17.256h-.257l-7.382-17.027-1.23 13.594a8.482 8.482 0 0 0-.081 1.2c0 1.287.715 1.6 1.6 1.887v.344h-4.892v-.344c1.4-.342 1.63-.773 1.831-2.861l1.258-13.423c.087-.858.115-1.173.115-1.43 0-1.373-.571-1.6-1.574-1.831v-.342h4.206l6.694 15.511 6.662-15.511zm14.561 17.004a7.755 7.755 0 0 1-.944 1.43 5.7 5.7 0 0 1-4.72 2.29c-4.177 0-6.266-3.291-6.266-6.811s2.231-7.155 6.523-7.155c3.2 0 5.664 2.09 5.75 6.24h-10.095a6.88 6.88 0 0 0 .054 1.453 4.764 4.764 0 0 0 4.746 4.437 6.184 6.184 0 0 0 4.491-2.2zm-2.088-5.185c-.114-2.775-1.831-3.921-3.464-3.921-1.859 0-3.518 1.316-4.09 3.921zm16.649-12.049v16.2c.028 1.974.343 2.375 1.345 2.718l.142.257-2.06 1.8a3.919 3.919 0 0 1-1.4-2.06c-1.544 1.345-2.688 2.06-4.605 2.06-3.805 0-5.95-2.919-5.95-6.5 0-3.949 2.431-7.5 6.637-7.5a7.029 7.029 0 0 1 3.689.972v-3.826c-.029-.858-.057-1.859-1.603-1.721l-.114-.257zm-2.204 12.392a5.7 5.7 0 0 0-.314-2.092 3.424 3.424 0 0 0-3.347-2.116c-2.889 0-4.491 2.491-4.491 5.724 0 3.434 2.088 5.38 4.406 5.38a4.2 4.2 0 0 0 1.659-.342 4.953 4.953 0 0 0 2.088-1.6zm6.123-1.631c0-.944-.028-1.545-1.43-1.545l-.144-.258 3.837-2.203v10.76c0 1.632.028 2.175 1.6 2.6v.344h-5.265v-.336c1.4-.429 1.4-1.03 1.4-2.661zm2.545-9.044a1.426 1.426 0 0 1-1.482 1.488 1.362 1.362 0 0 1-1.4-1.373 1.441 1.441 0 0 1 1.51-1.517 1.363 1.363 0 0 1 1.373 1.4m13.589 15.519c-1.631 3.2-3.748 3.744-5.379 3.744a5.063 5.063 0 0 1-4.233-2.06 7.368 7.368 0 0 1-1.457-4.584 8 8 0 0 1 1.685-5.117 5.572 5.572 0 0 1 4.635-2.234 6.423 6.423 0 0 1 4.18 1.46l-.46 2.633h-.34c-.462-1.116-1.206-2.862-3.58-2.862-3 0-4.006 3.149-4.006 5.352 0 3.378 2.118 5.582 4.464 5.582a5.967 5.967 0 0 0 4.09-2.2zm2.345-6.473c0-.944-.028-1.545-1.43-1.545l-.144-.258 3.837-2.203v10.76c0 1.632.028 2.175 1.6 2.6v.344h-5.265v-.336c1.4-.429 1.4-1.03 1.4-2.661zm2.547-9.044a1.427 1.427 0 0 1-1.484 1.488 1.362 1.362 0 0 1-1.4-1.373 1.441 1.441 0 0 1 1.51-1.517 1.364 1.364 0 0 1 1.374 1.4m6.122 5.068v2.232a5.6 5.6 0 0 1 4.405-2.032 4.418 4.418 0 0 1 3.633 1.63c.8 1.088.829 2.119.829 3.692v5.094c0 1.746.087 2.432 1.6 2.718v.344h-5.289v-.344a1.639 1.639 0 0 0 1.287-.83c.142-.314.2-.458.2-1.831v-5.436a3.193 3.193 0 0 0-.972-2.661 3.418 3.418 0 0 0-2.232-.715 3.612 3.612 0 0 0-2.432.8 3.033 3.033 0 0 0-1.029 2.72v5.294c0 1.861.172 2.29 1.574 2.661v.344h-5.322v-.344c1.487-.257 1.487-1.259 1.487-2.689v-5.639c0-1.8-.028-2.489-1.516-2.517l-.142-.258zm22.799 10.451a7.755 7.755 0 0 1-.944 1.43 5.7 5.7 0 0 1-4.72 2.29c-4.178 0-6.266-3.291-6.266-6.811s2.231-7.155 6.523-7.155c3.2 0 5.664 2.09 5.75 6.24h-10.095a6.88 6.88 0 0 0 .054 1.453 4.764 4.764 0 0 0 4.746 4.437 6.184 6.184 0 0 0 4.491-2.2zm-2.088-5.185c-.114-2.775-1.831-3.921-3.464-3.921-1.86 0-3.519 1.316-4.091 3.921zm-108.164-11.891c-.219-.216-.808-.153-1.487-.078l-.933.07-1.007-.08c-.834-.089-1.7-.182-2.009.077l-.129.243v.029c0 .3.26.4.534.5a1.235 1.235 0 0 1 .962 1 3.152 3.152 0 0 1 .074.526.159.159 0 0 1 0 .041c-.024 1.333-2.238 7.349-4.463 12.825-.944-2.377-3.994-12.872-4.028-12.98a7.457 7.457 0 0 1-.1-.84v-.026c.039-.653.314-.685.581-.718.191-.02.43-.05.444-.367l-.08-.2c-.252-.236-1.053-.175-2.248-.061l-1.061.087-1.137-.087c-.882-.1-1.715-.2-2.04.077l-.142.275v.023c0 .3.253.36.52.419a2.024 2.024 0 0 1 1.416.929c.158.267.391.766.832 1.775l1 2.4c-.029.07-3.49 8.819-3.655 9.237-.514-1.311-3.261-8.828-4.754-12.929l-.073-.369v-.47c.041-.654.326-.694.6-.732.195-.027.439-.06.454-.375l-.081-.2c-.247-.235-1.05-.174-2.243-.06l-1.062.083-1.127-.093a5.592 5.592 0 0 0-1.639-.051c-.121.014-.244.031-.374.05l-.949.093-1.087-.082c-.734-.084-1.369-.157-1.616.065l-.107.244c0 .4.443.468.765.517.02 0 .2.024.2.024.869.1 1.953.211 1.953 5.769v6.763c0 3.547-2.211 5.62-6.065 5.687a6.171 6.171 0 0 1-4.678-1.494c-1.679-1.644-1.911-4.363-1.911-7.059v-8.373a1.222 1.222 0 0 1 .981-1.394c.257-.085.525-.176.475-.481l-.167-.261c-.3-.2-.934-.081-1.668.064a8.605 8.605 0 0 1-1.354.192 9.935 9.935 0 0 1-1.36-.163c-.941-.149-1.832-.289-2.158-.01a.367.367 0 0 0-.13.29c0 .369.322.449.664.535.674.168 1.6.4 1.6 2.632v9.756a6.2 6.2 0 0 0 1.929 4.557 9.86 9.86 0 0 0 7.2 2.377c6.456-.225 7.811-4.276 7.811-7.637v-10.482c0-.846.243-1.121.509-1.242.478.15 1.06.507 1.528 1.716.039.1 3.968 9.914 4.875 12.522l1.748 5.063a.375.375 0 0 0 .265.221c.174.018.294-.183.307-.206.692-2.392 4.282-11.407 4.912-12.945.566 1.527 4.039 10.919 4.482 12.887a.321.321 0 0 0 .294.279.331.331 0 0 0 .35-.243c0 .005.561-1.665.561-1.665l.969-2.714c.009-.022.9-2.329.9-2.4-.006.032 3.977-10.652 3.977-10.652.823-1.989 1.581-2.029 2.031-2.05.238-.011.482-.024.505-.4a.3.3 0 0 0-.087-.246" fill="#fff"/></svg>